<svg width="14" height="14" viewBox="0 0 14 14" fill="none" xmlns="http://www.w3.org/2000/svg">
<path fill-rule="evenodd" clip-rule="evenodd" d="M1.4144 1.41421C2.19545 0.633165 3.46178 0.633165 4.24283 1.41421L12.4144 9.58579C13.1954 10.3668 13.1954 11.6332 12.4144 12.4142C11.6334 13.1953 10.367 13.1953 9.58597 12.4142L1.4144 4.24264C0.633351 3.46159 0.633351 2.19526 1.4144 1.41421Z" fill="#1C1C1C"/>
<path fill-rule="evenodd" clip-rule="evenodd" d="M1.5856 12.4142C0.804552 11.6332 0.804552 10.3668 1.5856 9.58579L9.75717 1.41421C10.5382 0.633165 11.8046 0.633165 12.5856 1.41421C13.3666 2.19526 13.3666 3.46159 12.5856 4.24264L4.41403 12.4142C3.63298 13.1953 2.36665 13.1953 1.5856 12.4142Z" fill="#1C1C1C"/>
</svg>
